# xmcd
#
# Track frame offsets: 
#        300
#        16915
#        33156
#        52247
#        80035
#        105798
#        131934
#        173817
#        185036
#        195280
#        212945
#        240506
#        258624
#        299379
#
# Disc length: 4249 seconds
#
# Revision: 0
# Processed by: cddbd v1.5.2PL0 Copyright (c) Steve Scherf et al.
# Submitted via: ExactAudioCopy v1.0b1
#
DISCID=cb10950e
DTITLE=Blindside Blues Band - Rare Tracks
DYEAR=2011
DGENRE=Blues Rock
TTITLE0=Freedom
TTITLE1=Good Lovin' Man
TTITLE2=Sweet Young Thang
TTITLE3=I Can't Wait Much Longer
TTITLE4=Morning Dew
TTITLE5=The Mighty Titan
TTITLE6=I'm Your Captain
TTITLE7=Black Betty
TTITLE8=Jack Daniels Weekend
TTITLE9=Too Tired
TTITLE10=You Don't Love Me
TTITLE11=Sabbeck
TTITLE12=No Quarter
TTITLE13=Crossing Jupiter
EXTD=
EXTT0=
EXTT1=
EXTT2=
EXTT3=
EXTT4=
EXTT5=
EXTT6=
EXTT7=
EXTT8=
EXTT9=
EXTT10=
EXTT11=
EXTT12=
EXTT13=
PLAYORDER=
